Coordinates
version=1
nRows=16
nColumns=33
inDegrees=yes

Units are S.I. units (second, meters, Newtons, ...)
Angles are in degrees.

endheader
time	ground_thorax_rot_x	ground_thorax_rot_y	ground_thorax_rot_z	ground_thorax_tx	ground_thorax_ty	ground_thorax_tz	clav_prot_r	clav_elev_r	scapula_abduction_r	scapula_elevation_r	scapula_upward_rot_r	scapula_winging_r	shoulder_elv_r	plane_of_elev_r	axial_rot_r	elbow_flexion_r	pro_sup_r	wrist_flex_r	wrist_dev_r	clav_prot_l	clav_elev_l	scapula_abduction_l	scapula_elevation_l	scapula_upward_rot_l	scapula_winging_l	shoulder_elv_l	plane_of_elev_l	axial_rot_l	elbow_flexion_l	pro_sup_l	wrist_flex_l	wrist_dev_l
      7.61000000	    -31.30383036	    -29.04208472	     40.23812058	    -94.27379725	    787.97897579	     -4.74607480	     10.12717707	    -45.00000000	     40.49580281	    -45.00000000	    -45.00000000	   2428.44991302	  -1193.20388912	    148.17166220	    179.99999979	   1802.90539311	     58.87229280	     23.61293442	     14.86222180	     15.85537331	     38.48781140	    -35.08594356	    -45.00000000	    -45.00000000	  -3162.52930142	  -2812.51720113	     24.62562110	    -37.67764096	   1808.79216280	     26.93279840	      8.59186486	    -18.81726726
      7.62000000	    -30.81769434	    -29.52588551	     41.13757347	    -90.97963380	    787.44324039	     -4.76070978	     10.17441723	    -45.00000000	     40.58731672	    -45.00000000	    -45.00000000	   2428.47294032	  -1193.46214518	    148.43529599	    179.99999979	   1802.63953697	     59.58101223	     23.49588071	     14.59574976	     15.79111799	     38.42492150	    -34.77307566	    -45.00000000	    -45.00000000	  -3162.99423771	  -2812.48820345	     24.08249832	    -38.28769734	   1808.70620102	     27.38314511	      8.65797448	    -18.83208382
      7.63000000	    -30.78263401	    -29.59877525	     41.23532110	    -87.88912943	    787.01591454	     -4.77009327	      9.93878565	    -45.00000000	     40.31961412	    -45.00000000	    -45.00000000	   2428.77322595	  -1193.48717186	    148.50529377	    179.99999979	   1802.59427794	     60.38556622	     23.38944573	     14.26834636	     16.13005464	     38.56245686	    -34.67068794	    -45.00000000	    -45.00000000	  -3162.99288288	  -2812.73036125	     24.37599768	    -39.03447501	   1808.56766215	     27.87452353	      8.56158492	    -18.78058998
      7.64000000	    -30.51584897	    -29.92184709	     41.69164281	    -85.01420610	    786.68858300	     -4.77024586	      9.90070576	    -45.00000000	     40.30986104	    -45.00000000	    -45.00000000	   2428.94189955	  -1193.66642419	    148.64176905	    179.99999979	   1802.49954056	     61.12078484	     23.28132802	     13.98312481	     16.12769910	     38.56477148	    -34.53838641	    -45.00000000	    -45.00000000	  -3163.17492069	  -2812.88126049	     24.18022716	    -39.57666148	   1808.37539893	     28.34745915	      8.55036783	    -18.75375295
      7.65000000	    -30.22350952	    -30.19930336	     42.19755761	    -82.36674826	    786.44810376	     -4.75738470	      9.86028551	    -45.00000000	     40.26764664	    -45.00000000	    -45.00000000	   2429.05975341	  -1193.78098290	    148.78964140	    179.99999979	   1802.36816925	     61.72824467	     23.13306730	     13.74801252	     16.15250041	     38.56845302	    -34.31180040	    -45.00000000	    -45.00000000	  -3163.40892314	  -2812.95755851	     24.06071165	    -40.07877213	   1808.20905229	     28.80015802	      8.52384594	    -18.73237268
      7.66000000	    -30.03488195	    -30.43686483	     42.57546555	    -79.95044052	    786.27722387	     -4.73139702	      9.71189987	    -45.00000000	     40.16912377	    -45.00000000	    -45.00000000	   2429.21893530	  -1193.90213025	    148.93301052	    179.99999979	   1802.25607588	     62.19932162	     22.97563744	     13.56233090	     16.25727506	     38.62273588	    -34.23314748	    -45.00000000	    -45.00000000	  -3163.54490335	  -2813.05377574	     23.95079736	    -40.46885630	   1808.03434171	     29.26630074	      8.46614491	    -18.71497105
      7.67000000	    -29.65334177	    -30.73141687	     43.20833336	    -77.76456260	    786.15466121	     -4.68872647	      9.81755623	    -45.00000000	     40.20252087	    -45.00000000	    -45.00000000	   2429.12302418	  -1194.05268590	    148.98920159	    179.99999979	   1802.01465119	     62.46978565	     22.86082990	     13.49712080	     16.07163003	     38.51698237	    -34.04477065	    -45.00000000	    -45.00000000	  -3163.84235933	  -2813.10323436	     23.68054425	    -40.78074186	   1807.85884249	     29.69570103	      8.50082087	    -18.73823738
      7.68000000	    -29.30536570	    -31.09364159	     43.87775978	    -75.80002548	    786.06163565	     -4.62460424	      9.73529132	    -45.00000000	     40.16284329	    -45.00000000	    -45.00000000	   2429.10577788	  -1194.25870312	    149.20103645	    179.99999979	   1801.84238361	     62.55621042	     22.67854289	     13.44791728	     16.11284906	     38.47127540	    -33.85399095	    -45.00000000	    -45.00000000	  -3164.03933347	  -2813.08043863	     23.37915152	    -40.92688160	   1807.76398568	     30.05582485	      8.45325741	    -18.77428885
      7.69000000	    -29.09894745	    -31.30797443	     44.19876884	    -74.04390930	    785.98628579	     -4.52468812	      9.57465630	    -45.00000000	     40.00439172	    -45.00000000	    -45.00000000	   2429.22406991	  -1194.32102108	    149.26902174	    179.99999979	   1801.75729785	     62.48883169	     22.49355794	     13.39945281	     16.21687995	     38.50426920	    -33.72779661	    -45.00000000	    -45.00000000	  -3164.08737719	  -2813.21612290	     23.36814623	    -41.09541841	   1807.61811417	     30.40819426	      8.39970015	    -18.77499517
      7.70000000	    -28.81201870	    -31.59502168	     44.70415890	    -72.48546170	    785.92959471	     -4.37801783	      9.49600436	    -45.00000000	     39.88618883	    -45.00000000	    -45.00000000	   2429.18867164	  -1194.41832314	    149.36140886	    179.99999979	   1801.62442123	     62.30995124	     22.30926016	     13.41179142	     16.26668881	     38.39750847	    -33.44563220	    -45.00000000	    -45.00000000	  -3164.12023198	  -2813.21848944	     23.38035817	    -41.07907537	   1807.53679969	     30.65893899	      8.38050807	    -18.78028634
      7.71000000	    -28.56621958	    -31.68637610	     45.05146136	    -71.11518640	    785.90377265	     -4.17278835	      9.48608703	    -45.00000000	     39.67020831	    -45.00000000	    -45.00000000	   2429.15780959	  -1194.37534495	    149.27684456	    179.99999979	   1801.41580503	     62.06210085	     22.17521851	     13.52266275	     16.27029612	     38.32698473	    -33.31661839	    -45.00000000	    -45.00000000	  -3164.30074429	  -2813.46009966	     23.46185177	    -41.10241375	   1807.28992434	     30.83159514	      8.43606028	    -18.71733132
      7.72000000	    -28.62814017	    -31.67161577	     45.02931108	    -69.93283381	    785.92979054	     -3.91221273	      9.33430772	    -45.00000000	     39.67244036	    -45.00000000	    -45.00000000	   2429.17886209	  -1194.52727576	    149.24546348	    179.99999979	   1801.46402548	     61.66385829	     22.20402911	     13.60251019	     16.33288619	     38.36996134	    -33.74728539	    -44.80472686	    -45.00000000	  -3164.09140661	  -2813.58678756	     23.25987917	    -41.00240723	   1807.32682183	     30.84881357	      8.49442443	    -18.71961185
      7.73000000	    -28.55804699	    -31.82393638	     45.22736082	    -68.93775385	    786.02930214	     -3.62465244	      9.25003996	    -45.00000000	     39.42130282	    -45.00000000	    -45.00000000	   2429.24512739	  -1194.57249964	    149.20299972	    179.99999979	   1801.23745654	     61.27563768	     22.11346697	     13.81797694	     16.42379546	     38.23333854	    -33.44600046	    -44.87414950	    -45.00000000	  -3164.20667121	  -2813.69035047	     23.55087621	    -40.76114446	   1807.06159086	     30.72154620	      8.55810601	    -18.57950712
      7.74000000	    -28.60363497	    -31.81162900	     45.17183178	    -68.12796058	    786.21362728	     -3.35504286	      9.26336239	    -45.00000000	     39.66429442	    -45.00000000	    -45.00000000	   2429.24365018	  -1194.72854599	    149.26088898	    179.99999979	   1801.41622764	     60.77303052	     22.23114222	     13.88273991	     16.30598801	     38.41842253	    -33.69497489	    -44.70530820	    -45.00000000	  -3164.24154786	  -2813.68023876	     23.29864215	    -40.47500140	   1807.14637485	     30.42767378	      8.70170840	    -18.58613710
      7.75000000	    -28.72694930	    -31.91003860	     45.09690107	    -67.49379702	    786.47678879	     -3.14508698	      9.29290459	    -45.00000000	     39.47184786	    -45.00000000	    -45.00000000	   2429.47998163	  -1194.77770816	    149.22774467	    179.99999979	   1801.22500448	     60.41027781	     22.16735712	     14.15460930	     16.46942498	     38.11442759	    -33.49369907	    -44.82633569	    -45.00000000	  -3164.22900516	  -2813.93791200	     23.76938238	    -40.12262430	   1806.76564627	     30.05975722	      8.74744209	    -18.38057752
      7.76000000	    -28.96641953	    -31.80431287	     44.87140238	    -67.00386049	    786.80007661	     -3.00991682	      9.25723812	    -45.00000000	     39.55197193	    -45.00000000	    -45.00000000	   2429.54948728	  -1194.91448161	    149.21208680	    179.99999979	   1801.33863075	     59.94315761	     22.25177564	     14.20057806	     16.38793863	     38.37981047	    -33.69864330	    -44.66712170	    -45.00000000	  -3164.35684929	  -2813.73161098	     23.62130264	    -39.80261830	   1806.75842324	     29.53906551	      8.92059920	    -18.39782643
